<?xml version="1.0" standalone="no"?>
<!DOCTYPE svg PUBLIC "-//W3C//DTD SVG 20010904//EN"
 "http://www.w3.org/TR/2001/REC-SVG-20010904/DTD/svg10.dtd">
<svg version="1.0" xmlns="http://www.w3.org/2000/svg"
 width="137.000000pt" height="137.000000pt" viewBox="0 0 137.000000 137.000000"
 preserveAspectRatio="xMidYMid meet">
<metadata>
Created by potrace 1.11, written by Peter Selinger 2001-2013
</metadata>
<g transform="translate(0.000000,137.000000) scale(0.100000,-0.100000)"
fill="#000000" stroke="none">
<path d="M795 1191 c6 -5 42 -24 80 -41 39 -17 66 -27 60 -22 -5 6 -41 24 -80
42 -38 17 -65 27 -60 21z"/>
<path d="M520 1174 l-25 -15 25 7 c28 7 35 12 29 18 -2 2 -15 -2 -29 -10z"/>
<path d="M492 1127 c-76 -33 -96 -47 -159 -115 -40 -42 -74 -81 -74 -87 -7
-51 -6 -55 7 -44 11 9 14 8 14 -2 0 -11 2 -11 8 -2 8 13 46 15 255 14 90 0
117 -4 117 -14 0 -9 2 -9 8 -1 9 14 62 24 62 12 0 -5 4 -6 10 -3 5 3 91 6 190
6 212 0 214 1 128 95 -29 31 -62 67 -73 79 -11 13 -58 40 -105 61 -81 35 -91
37 -193 38 -103 1 -111 -1 -195 -37z m368 -61 c0 -3 -4 -8 -10 -11 -5 -3 -10
-1 -10 4 0 6 5 11 10 11 6 0 10 -2 10 -4z m-450 -22 c0 -8 -4 -12 -10 -9 -5 3
-10 10 -10 16 0 5 5 9 10 9 6 0 10 -7 10 -16z m118 -14 c14 0 14 -2 3 -9 -7
-5 -11 -13 -7 -19 3 -5 -6 -9 -20 -9 -13 0 -22 2 -20 5 3 3 1 11 -5 19 -9 10
-8 13 5 13 9 0 17 8 17 18 1 16 2 16 6 0 2 -10 12 -18 21 -18z m110 10 c3 -7
0 -10 -7 -6 -6 4 -15 5 -21 1 -14 -8 0 -35 18 -35 12 0 13 -3 5 -11 -19 -19
-43 -2 -43 30 0 38 37 55 48 21z m73 -17 l0 -38 19 40 18 40 17 -39 c17 -41
14 -56 -9 -37 -10 8 -16 9 -21 1 -3 -5 -15 -10 -26 -10 -14 0 -19 7 -19 30 0
17 -4 30 -10 30 -5 0 -10 -13 -10 -30 0 -16 -4 -30 -10 -30 -11 0 -14 63 -3
73 3 4 17 7 30 7 20 0 23 -5 24 -37z m177 -15 c-2 -7 -7 -16 -12 -20 -13 -9
-37 2 -30 14 4 6 0 14 -7 19 -11 7 -10 9 4 9 9 0 17 5 17 11 0 6 7 4 15 -5 9
-8 14 -21 13 -28z"/>
<path d="M428 1134 c-27 -13 -48 -27 -48 -29 0 -5 99 42 109 51 13 11 -20 0
-61 -22z"/>
<path d="M965 1111 c11 -5 37 -27 57 -50 19 -22 39 -41 44 -41 5 0 -14 23 -41
50 -27 28 -56 50 -65 49 -10 0 -8 -3 5 -8z"/>
<path d="M315 1043 c-28 -31 -56 -66 -63 -77 -8 -13 -5 -11 8 4 12 14 42 47
67 73 25 26 44 50 41 52 -2 2 -26 -22 -53 -52z"/>
<path d="M1099 976 c19 -20 37 -36 39 -36 8 0 -44 59 -58 65 -8 3 1 -10 19
-29z"/>
<path d="M223 925 c-3 -9 -3 -18 -1 -21 3 -3 8 4 11 16 6 23 -1 27 -10 5z"/>
<path d="M96 882 c-3 -5 1 -9 9 -9 8 0 12 4 9 9 -3 4 -7 8 -9 8 -2 0 -6 -4 -9
-8z"/>
<path d="M1175 880 c-3 -6 1 -7 9 -4 18 7 21 14 7 14 -6 0 -13 -4 -16 -10z"/>
<path d="M1296 882 c-3 -5 1 -9 9 -9 8 0 12 4 9 9 -3 4 -7 8 -9 8 -2 0 -6 -4
-9 -8z"/>
<path d="M5 870 c-3 -6 1 -7 9 -4 18 7 21 14 7 14 -6 0 -13 -4 -16 -10z"/>
<path d="M1051 872 c-1 -9 -94 -12 -437 -12 -386 1 -439 -1 -454 -15 -11 -10
-20 -12 -24 -7 -3 6 0 13 6 15 7 3 -17 6 -54 6 l-68 1 0 -80 c0 -44 4 -80 9
-80 5 0 11 -10 14 -22 5 -21 5 -21 -7 -5 -7 9 -19 17 -27 17 -10 0 -11 -2 -2
-8 7 -4 13 -37 15 -77 l3 -70 399 -2 c281 -2 403 0 413 8 9 8 13 8 13 1 0 -11
457 -16 485 -6 12 5 15 28 14 120 0 63 -5 114 -10 114 -5 0 -9 5 -9 11 0 5 4
8 8 5 5 -3 8 11 7 32 l-1 37 -119 3 c-80 2 -122 7 -127 15 -6 9 -8 9 -8 0 0
-7 -6 -13 -14 -13 -8 0 -17 6 -19 13 -4 9 -6 9 -6 -1z m279 -31 c0 -6 -4 -13
-10 -16 -5 -3 -10 1 -10 9 0 9 5 16 10 16 6 0 10 -4 10 -9z m-33 -43 c-3 -8
-6 -5 -6 6 -1 11 2 17 5 13 3 -3 4 -12 1 -19z m-1127 -36 c19 -56 26 -58 45
-9 12 33 24 46 41 50 13 2 26 2 29 -1 8 -8 6 -202 -2 -203 -5 0 -16 -2 -25 -4
-19 -3 -21 1 -19 55 1 34 0 35 -11 10 -23 -47 -47 -48 -65 -2 -10 25 -11 23
-9 -20 2 -44 1 -46 -23 -45 -26 2 -26 3 -29 104 -3 99 -2 102 20 105 32 5 35
3 48 -40z m283 17 c19 -23 22 -54 7 -64 -6 -4 -4 -15 6 -30 9 -13 15 -27 14
-32 -1 -4 3 -9 8 -11 6 -2 22 33 36 76 22 66 31 81 51 84 22 5 26 -2 59 -98
20 -57 36 -105 36 -107 0 -11 -54 1 -58 13 -12 36 -54 40 -70 6 -7 -16 -17
-23 -29 -21 -10 2 -21 4 -25 4 -4 1 -5 8 -2 16 8 19 -5 19 -27 -1 -10 -9 -41
-17 -78 -19 l-61 -4 0 104 c0 115 -2 113 75 108 26 -2 46 -10 58 -24z m370 3
c23 -20 22 -77 -2 -101 -18 -18 -18 -19 5 -47 30 -37 30 -39 -4 -40 -22 -1
-34 7 -53 34 l-24 36 -5 -35 c-4 -26 -10 -35 -27 -37 -14 -2 -23 2 -24 10 0 7
-1 54 -2 105 l-2 92 40 3 c51 4 76 -1 98 -20z m212 18 c6 0 19 -8 30 -16 20
-15 20 -16 1 -29 -13 -10 -24 -11 -37 -5 -35 19 -50 2 -47 -54 3 -46 5 -51 27
-51 13 0 26 6 29 13 2 6 -3 12 -11 12 -22 0 -29 28 -9 39 9 4 28 8 42 6 21 -1
25 -7 28 -38 5 -53 -35 -92 -85 -84 -63 11 -75 31 -69 112 6 88 7 95 18 89 4
-3 15 -1 25 4 9 5 24 8 32 7 9 -2 21 -4 26 -5z m201 -6 c19 -9 35 -19 35 -23
6 -31 8 -110 4 -128 -12 -52 -125 -68 -153 -23 -15 25 -18 136 -3 153 6 8 7
18 3 22 -4 5 -1 5 5 1 7 -4 21 -2 30 3 25 14 40 13 79 -5z m-336 -38 c0 -2 -7
-7 -16 -10 -8 -3 -12 -2 -9 4 6 10 25 14 25 6z m6 -121 c6 -16 -12 -45 -27
-45 -12 0 -31 39 -24 50 10 15 45 12 51 -5z m344 -85 c0 -5 -2 -10 -4 -10 -3
0 -8 5 -11 10 -3 6 -1 10 4 10 6 0 11 -4 11 -10z"/>
<path d="M373 740 c-1 -16 3 -21 20 -18 28 4 29 32 2 36 -15 2 -21 -3 -22 -18z"/>
<path d="M570 716 c0 -9 0 -19 -1 -23 0 -4 4 -9 10 -11 14 -5 14 35 1 43 -5 3
-10 -1 -10 -9z"/>
<path d="M375 670 c-9 -15 3 -30 25 -30 18 0 34 23 23 34 -10 10 -41 7 -48 -4z"/>
<path d="M740 729 c0 -21 4 -26 18 -24 9 2 20 4 25 4 4 1 7 9 7 20 0 12 -9 20
-25 23 -22 5 -25 2 -25 -23z"/>
<path d="M1173 753 c-20 -8 -17 -102 3 -110 29 -11 49 11 50 53 1 55 -16 73
-53 57z"/>
<path d="M1340 870 c8 -5 20 -10 25 -10 6 0 3 5 -5 10 -8 5 -19 10 -25 10 -5
0 -3 -5 5 -10z"/>
<path d="M1352 524 c-7 -8 -8 -14 -3 -14 10 0 25 19 20 25 -2 1 -10 -3 -17
-11z"/>
<path d="M211 510 c0 -8 4 -22 9 -30 12 -18 12 -2 0 25 -6 13 -9 15 -9 5z"/>
<path d="M236 512 c5 -4 26 -36 46 -72 30 -54 50 -75 118 -124 81 -58 178 -94
223 -82 9 2 15 0 11 -5 -3 -5 2 -6 10 -3 9 3 16 11 16 17 0 5 9 2 20 -8 14
-12 27 -15 47 -10 15 4 43 9 62 11 18 3 41 9 51 14 9 5 20 7 23 4 3 -3 35 15
71 41 64 45 82 63 51 51 -8 -3 -15 -1 -15 5 0 7 10 9 23 5 34 -8 69 32 72 82
2 33 -1 39 -16 35 -10 -3 -15 -11 -13 -18 3 -7 0 -16 -6 -20 -6 -4 -9 -1 -8 7
2 8 -5 12 -17 10 l-20 -3 20 14 c11 8 35 18 53 22 31 6 33 5 27 -14 -10 -31 0
-25 24 14 11 19 16 35 11 35 -6 0 -10 -4 -10 -8 0 -17 -101 -17 -112 0 -6 10
-8 10 -8 1 0 -13 -26 -13 -47 0 -6 4 -13 1 -16 -5 -3 -10 -11 -10 -36 -1 -17
6 -29 7 -25 2 3 -5 -2 -9 -11 -9 -10 0 -14 5 -9 13 6 10 4 10 -7 0 -16 -16
-33 -17 -23 -2 5 8 1 8 -14 0 -27 -14 -35 -14 -26 1 5 7 3 8 -7 2 -18 -11 -39
-14 -39 -5 0 4 -9 7 -19 7 -11 0 -18 -3 -15 -7 2 -4 -7 -6 -21 -6 -14 0 -22 3
-20 7 6 10 -15 8 -32 -3 -6 -4 -14 -3 -18 3 -4 6 -12 7 -18 3 -17 -11 -30 -11
-46 1 -12 9 -13 8 -6 -4 8 -13 7 -13 -8 -1 -9 7 -17 9 -17 4 0 -5 -7 -10 -15
-10 -8 0 -15 5 -15 11 0 6 -4 5 -9 -3 -5 -8 -14 -10 -22 -5 -7 4 -25 9 -38 10
-20 2 -22 1 -11 -6 13 -9 13 -10 -1 -10 -8 0 -20 5 -26 11 -8 8 -13 8 -17 0
-9 -14 -53 -14 -61 -1 -5 8 -11 8 -20 0 -9 -8 -15 -8 -20 0 -3 5 -12 10 -18
10 -8 0 -9 -3 -1 -8z m404 -103 c0 -4 -8 -10 -17 -12 -15 -4 -14 -6 5 -12 31
-10 24 -39 -11 -43 -25 -3 -27 -1 -27 32 0 19 6 36 13 39 19 6 37 4 37 -4z
m128 -2 c19 -12 14 -38 -8 -44 -11 -3 -20 -13 -20 -22 -1 -14 -2 -14 -9 -1 -7
13 -8 41 -2 72 1 8 22 5 39 -5z m-61 -36 c13 -31 13 -32 -7 -26 -12 4 -28 1
-37 -7 -14 -11 -15 -10 -9 12 4 14 10 33 13 43 7 26 25 16 40 -22z m223 29 c0
-5 -5 -10 -11 -10 -5 0 -7 5 -4 10 3 6 8 10 11 10 2 0 4 -4 4 -10z m-395 -12
c4 4 2 -3 -6 -15 -7 -12 -16 -20 -20 -17 -4 2 -10 0 -14 -6 -3 -5 -11 -10 -17
-10 -7 0 -6 5 1 14 9 11 9 16 0 22 -9 5 -7 9 7 14 10 4 24 4 30 -1 6 -5 14 -5
19 -1z m353 -24 c0 -18 -4 -22 -12 -14 -9 6 -17 6 -26 -3 -10 -10 -12 -9 -7 5
3 10 1 21 -5 24 -8 5 -5 10 8 14 28 10 42 2 42 -26z m142 32 c0 -3 -4 -8 -10
-11 -5 -3 -10 -1 -10 4 0 6 5 11 10 11 6 0 10 -2 10 -4z m-90 -20 c0 -3 -4 -8
-10 -11 -5 -3 -10 -1 -10 4 0 6 5 11 10 11 6 0 10 -2 10 -4z"/>
<path d="M615 360 c3 -5 8 -10 11 -10 2 0 4 5 4 10 0 6 -5 10 -11 10 -5 0 -7
-4 -4 -10z"/>
<path d="M745 390 c-3 -5 -1 -10 4 -10 6 0 11 5 11 10 0 6 -2 10 -4 10 -3 0
-8 -4 -11 -10z"/>
<path d="M1127 467 l-17 -32 20 24 c17 20 26 41 18 41 -2 0 -11 -15 -21 -33z"/>
<path d="M235 450 c3 -5 8 -10 11 -10 2 0 4 5 4 10 0 6 -5 10 -11 10 -5 0 -7
-4 -4 -10z"/>
<path d="M260 411 c5 -11 15 -23 21 -27 6 -3 3 5 -6 20 -20 30 -30 35 -15 7z"/>
<path d="M1078 386 c-15 -28 -49 -56 -142 -119 -37 -26 -64 -47 -59 -47 9 0
47 26 146 99 41 30 89 91 73 91 -3 0 -11 -11 -18 -24z"/>
<path d="M290 358 c14 -17 185 -138 194 -138 6 0 2 6 -9 12 -11 6 -45 30 -75
53 -55 42 -119 84 -110 73z"/>
<path d="M840 220 c-9 -6 -10 -10 -3 -10 6 0 15 5 18 10 8 12 4 12 -15 0z"/>
<path d="M535 210 c11 -5 27 -9 35 -9 9 0 8 4 -5 9 -11 5 -27 9 -35 9 -9 0 -8
-4 5 -9z"/>
<path d="M756 198 c3 -5 10 -6 15 -3 13 9 11 12 -6 12 -8 0 -12 -4 -9 -9z"/>
<path d="M610 196 c0 -2 11 -6 25 -8 13 -3 22 -1 19 3 -5 9 -44 13 -44 5z"/>
<path d="M705 189 c-3 -4 2 -6 10 -5 21 3 28 13 10 13 -9 0 -18 -4 -20 -8z"/>
</g>
</svg>
